<svg xmlns="http://www.w3.org/2000/svg" xmlns:xlink="http://www.w3.org/1999/xlink" version="1.1" width="18" height="18" viewBox="0 0 18 18"><defs><clipPath id="master_svg0_4170_33222"><rect x="0" y="0" width="18" height="18" rx="0"/></clipPath></defs><g clip-path="url(#master_svg0_4170_33222)"><g><rect x="0" y="0" width="18" height="18" rx="0" fill="#FFFFFF" fill-opacity="0.009999999776482582"/></g><g><path d="M14.657020796875,3.342980203125Q17.000176796875,5.686143203125,17.000176796875,8.999823203125Q17.000176796875,12.313543203125,14.657020796875,14.656733203125Q14.622198796875,14.691533203125,14.581251796875,14.718833203125Q14.540305796875,14.746233203125,14.494808796875,14.765133203125Q14.449311796875,14.783933203125,14.401012196875,14.793533203125Q14.352712696875,14.803133203125,14.303467006369,14.803133203125Q14.254221296875,14.803133203125,14.205921796875,14.793533203125Q14.157622796875,14.783933203125,14.112124796875,14.765133203125Q14.066627796875,14.746233203125,14.025681796875,14.718933203125Q13.984735796875,14.691533203125,13.949913796875,14.656733203125Q13.915091796875,14.621833203125,13.887731796875,14.580933203125Q13.860372796875,14.540033203125,13.841526796875,14.494533203125Q13.822681796874999,14.449033203125,13.813074796875,14.400733203125Q13.803466796875,14.352433203125,13.803466796875,14.303133203125Q13.803466796875,14.253933203125,13.813073796875,14.205633203125Q13.822681796874999,14.157333203125,13.841526796875,14.111833203125Q13.860372796875,14.066333203125,13.887731796875,14.025333203125Q13.915091796875,13.984433203125,13.949912796875,13.949633203125Q16.000176796875,11.899323203125,16.000176796875,8.999823203125Q16.000176796875,6.100363203125,13.949912796875,4.050086203125Q13.915090796875,4.015264203125,13.887731796875,3.974317203125Q13.860371796875,3.933371203125,13.841526796875,3.887874203125Q13.822681796874999,3.842377203125,13.813073796875,3.794077503125Q13.803466796875,3.745778003125,13.803466796875,3.696532321506Q13.803466796875,3.647286603125,13.813074796875,3.598987203125Q13.822681796874999,3.550688203125,13.841527796875,3.505190203125Q13.860372796875,3.459693203125,13.887732796875,3.418747203125Q13.915091796875,3.377801203125,13.949913796875,3.342979203125Q13.984735796875,3.308157203125,14.025682796875,3.280798203125Q14.066628796875,3.253438203125,14.112125796875,3.2345932031249998Q14.157622796875,3.215748203125,14.205922496875,3.206140203125Q14.254221996875,3.196533203125,14.303467678494,3.196533203125Q14.352713396875,3.196533203125,14.401012796875,3.206141203125Q14.449311796875,3.215748203125,14.494809796875,3.234594203125Q14.540306796875,3.253439203125,14.581252796875,3.280799203125Q14.622198796875,3.308158203125,14.657020796875,3.342980203125ZM14.803466796875,3.696533203125Q14.803466796875,3.745778903125,14.793859796875,3.794078303125Q14.784251796875001,3.842378203125,14.765406796875,3.887875203125Q14.746560796875,3.933372203125,14.719201796875,3.974318203125Q14.691841796875,4.015264203125,14.657019796875,4.050086203125Q14.622197796875,4.084908203125,14.581251796875,4.112268203125Q14.540305796875,4.139627203125,14.494808796875,4.158473203125Q14.449311796875,4.177318203125,14.401011896875,4.186926203125Q14.352712496875,4.196533203125,14.303466796875,4.196533203125Q14.254221096875,4.196533203125,14.205921696875,4.186926203125Q14.157621796875,4.177318203125,14.112124796875,4.158473203125Q14.066627796875,4.139627203125,14.025681796875,4.112268203125Q13.984735796875,4.084908203125,13.949913796875,4.050086203125Q13.915091796875,4.015264203125,13.887731796875,3.974318203125Q13.860372796875,3.933372203125,13.841526796875,3.887875203125Q13.822681796874999,3.842378203125,13.813073796875,3.794078303125Q13.803466796875,3.745778903125,13.803466796875,3.696533203125Q13.803466796875,3.647287503125,13.813073796875,3.598988103125Q13.822681796874999,3.550688203125,13.841526796875,3.505191203125Q13.860372796875,3.459694203125,13.887731796875,3.418748203125Q13.915091796875,3.377802203125,13.949913796875,3.342980203125Q13.984735796875,3.308158203125,14.025681796875,3.280798203125Q14.066627796875,3.253439203125,14.112124796875,3.2345932031249998Q14.157621796875,3.215748203125,14.205921696875,3.206140203125Q14.254221096875,3.196533203125,14.303466796875,3.196533203125Q14.352712496875,3.196533203125,14.401011896875,3.206140203125Q14.449311796875,3.215748203125,14.494808796875,3.2345932031249998Q14.540305796875,3.253439203125,14.581251796875,3.280798203125Q14.622197796875,3.308158203125,14.657019796875,3.342980203125Q14.691841796875,3.377802203125,14.719201796875,3.418748203125Q14.746560796875,3.459694203125,14.765406796875,3.505191203125Q14.784251796875001,3.550688203125,14.793859796875,3.598988103125Q14.803466796875,3.647287503125,14.803466796875,3.696533203125ZM14.803466796875,14.303133203125Q14.803466796875,14.352433203125,14.793859796875,14.400733203125Q14.784251796875001,14.449033203125,14.765406796875,14.494533203125Q14.746560796875,14.540033203125,14.719201796875,14.580933203125Q14.691841796875,14.621833203125,14.657019796875,14.656733203125Q14.622197796875,14.691533203125,14.581251796875,14.718933203125Q14.540305796875,14.746233203125,14.494808796875,14.765133203125Q14.449311796875,14.783933203125,14.401011896875,14.793533203125Q14.352712496875,14.803133203125,14.303466796875,14.803133203125Q14.254221096875,14.803133203125,14.205921696875,14.793533203125Q14.157621796875,14.783933203125,14.112124796875,14.765133203125Q14.066627796875,14.746233203125,14.025681796875,14.718933203125Q13.984735796875,14.691533203125,13.949913796875,14.656733203125Q13.915091796875,14.621833203125,13.887731796875,14.580933203125Q13.860372796875,14.540033203125,13.841526796875,14.494533203125Q13.822681796874999,14.449033203125,13.813073796875,14.400733203125Q13.803466796875,14.352433203125,13.803466796875,14.303133203125Q13.803466796875,14.253933203125,13.813073796875,14.205633203125Q13.822681796874999,14.157333203125,13.841526796875,14.111833203125Q13.860372796875,14.066333203125,13.887731796875,14.025333203125Q13.915091796875,13.984433203125,13.949913796875,13.949633203125Q13.984735796875,13.914733203125,14.025681796875,13.887433203125Q14.066627796875,13.860033203125,14.112124796875,13.841233203125Q14.157621796875,13.822333203125,14.205921696875,13.812733203125Q14.254221096875,13.803133203125,14.303466796875,13.803133203125Q14.352712496875,13.803133203125,14.401011896875,13.812733203125Q14.449311796875,13.822333203125,14.494808796875,13.841233203125Q14.540305796875,13.860033203125,14.581251796875,13.887433203125Q14.622197796875,13.914733203125,14.657019796875,13.949633203125Q14.691841796875,13.984433203125,14.719201796875,14.025333203125Q14.746560796875,14.066333203125,14.765406796875,14.111833203125Q14.784251796875001,14.157333203125,14.793859796875,14.205633203125Q14.803466796875,14.253933203125,14.803466796875,14.303133203125Z"   fill-opacity="1"/></g><g><path d="M3.34314,14.656733203125Q1,12.313543203125,1,8.999823203125Q1,5.686143203125,3.34314,3.342981203125Q3.37796,3.3081592031250002,3.41891,3.280799203125Q3.45986,3.253440203125,3.50535,3.234594203125Q3.55085,3.215748203125,3.59915,3.206141203125Q3.64745,3.196533203125,3.6967,3.196533203125Q3.74594,3.196533203125,3.79424,3.206140203125Q3.84254,3.215747203125,3.88804,3.234592203125Q3.93353,3.253438203125,3.97448,3.280797203125Q4.01543,3.308156203125,4.05025,3.342978203125Q4.08507,3.377800203125,4.11243,3.418746203125Q4.13979,3.459692203125,4.15864,3.505189203125Q4.17748,3.550686203125,4.1870899999999995,3.598985903125Q4.1967,3.647285403125,4.1967,3.696531055815Q4.1967,3.745776803125,4.1870899999999995,3.794076203125Q4.17748,3.842376203125,4.15864,3.887873203125Q4.13979,3.933370203125,4.11243,3.974316203125Q4.08507,4.015263203125,4.05025,4.050085203125Q2,6.100353203125,2,8.999823203125Q2,11.899333203125,4.05025,13.949633203125Q4.08507,13.984433203125,4.11243,14.025333203125Q4.13979,14.066333203125,4.15864,14.111833203125Q4.17748,14.157333203125,4.1870899999999995,14.205633203125Q4.1967,14.253933203125,4.1967,14.303133203125Q4.1967,14.352433203125,4.1870899999999995,14.400733203125Q4.17748,14.449033203125,4.15864,14.494533203125Q4.13979,14.540033203125,4.11243,14.580933203125Q4.08507,14.621833203125,4.05025,14.656733203125Q4.01543,14.691533203125,3.97448,14.718933203125Q3.93353,14.746233203125,3.88804,14.765133203125Q3.84254,14.783933203125,3.79424,14.793533203125Q3.74594,14.803133203125,3.6967,14.803133203125Q3.64745,14.803133203125,3.59915,14.793533203125Q3.55085,14.783933203125,3.50535,14.765133203125Q3.45986,14.746233203125,3.41891,14.718833203125Q3.37796,14.691533203125,3.34314,14.656733203125ZM4.1967,14.303133203125Q4.1967,14.352433203125,4.1870899999999995,14.400733203125Q4.17748,14.449033203125,4.15864,14.494533203125Q4.13979,14.540033203125,4.11243,14.580933203125Q4.08507,14.621833203125,4.05025,14.656733203125Q4.01543,14.691533203125,3.97448,14.718933203125Q3.93354,14.746233203125,3.88804,14.765133203125Q3.84254,14.783933203125,3.79424,14.793533203125Q3.74594,14.803133203125,3.6967,14.803133203125Q3.64745,14.803133203125,3.59915,14.793533203125Q3.55085,14.783933203125,3.50536,14.765133203125Q3.45986,14.746233203125,3.41891,14.718933203125Q3.37797,14.691533203125,3.34314,14.656733203125Q3.30832,14.621833203125,3.2809600000000003,14.580933203125Q3.2536,14.540033203125,3.23476,14.494533203125Q3.21591,14.449033203125,3.2062999999999997,14.400733203125Q3.1967,14.352433203125,3.1967,14.303133203125Q3.1967,14.253933203125,3.2062999999999997,14.205633203125Q3.21591,14.157333203125,3.23476,14.111833203125Q3.2536,14.066333203125,3.2809600000000003,14.025333203125Q3.30832,13.984433203125,3.34314,13.949633203125Q3.37797,13.914733203125,3.41891,13.887433203125Q3.45986,13.860033203125,3.50536,13.841233203125Q3.55085,13.822333203125,3.59915,13.812733203125Q3.64745,13.803133203125,3.6967,13.803133203125Q3.74594,13.803133203125,3.79424,13.812733203125Q3.84254,13.822333203125,3.88804,13.841233203125Q3.93354,13.860033203125,3.97448,13.887433203125Q4.01543,13.914733203125,4.05025,13.949633203125Q4.08507,13.984433203125,4.11243,14.025333203125Q4.13979,14.066333203125,4.15864,14.111833203125Q4.17748,14.157333203125,4.1870899999999995,14.205633203125Q4.1967,14.253933203125,4.1967,14.303133203125ZM4.1967,3.696533203125Q4.1967,3.745778903125,4.1870899999999995,3.794078303125Q4.17748,3.842378203125,4.15864,3.887875203125Q4.13979,3.933372203125,4.11243,3.974318203125Q4.08507,4.015264203125,4.05025,4.050086203125Q4.01543,4.084908203125,3.97448,4.112268203125Q3.93354,4.139627203125,3.88804,4.158473203125Q3.84254,4.177318203125,3.79424,4.186926203125Q3.74594,4.196533203125,3.6967,4.196533203125Q3.64745,4.196533203125,3.59915,4.186926203125Q3.55085,4.177318203125,3.50536,4.158473203125Q3.45986,4.139627203125,3.41891,4.112268203125Q3.37797,4.084908203125,3.34314,4.050086203125Q3.30832,4.015264203125,3.2809600000000003,3.974318203125Q3.2536,3.933372203125,3.23476,3.887875203125Q3.21591,3.842378203125,3.2062999999999997,3.794078303125Q3.1967,3.745778903125,3.1967,3.696533203125Q3.1967,3.647287503125,3.2062999999999997,3.598988103125Q3.21591,3.550688203125,3.23476,3.505191203125Q3.2536,3.459694203125,3.2809600000000003,3.418748203125Q3.30832,3.377802203125,3.34314,3.342980203125Q3.37797,3.308158203125,3.41891,3.280798203125Q3.45986,3.253439203125,3.50536,3.2345932031249998Q3.55085,3.215748203125,3.59915,3.206140203125Q3.64745,3.196533203125,3.6967,3.196533203125Q3.74594,3.196533203125,3.79424,3.206140203125Q3.84254,3.215748203125,3.88804,3.2345932031249998Q3.93354,3.253439203125,3.97448,3.280798203125Q4.01543,3.308158203125,4.05025,3.342980203125Q4.08507,3.377802203125,4.11243,3.418748203125Q4.13979,3.459694203125,4.15864,3.505191203125Q4.17748,3.550688203125,4.1870899999999995,3.598988103125Q4.1967,3.647287503125,4.1967,3.696533203125Z"   fill-opacity="1"/></g><g><path d="M5.30913,13.065533515624999Q3.625,11.381393515625,3.625,8.999663515625Q3.625,6.617933515625,5.30913,4.933800515625Q5.34396,4.898978515625,5.3849,4.871618515625Q5.4258500000000005,4.844259515625,5.47135,4.825413515625Q5.51684,4.806568515625,5.5651399999999995,4.796961515625Q5.61344,4.787353515625,5.66269,4.787353515625Q5.71193,4.787353515625,5.76023,4.796960515625Q5.80853,4.806568515625,5.85403,4.825413515625Q5.89953,4.844259515625,5.9404699999999995,4.871618515625Q5.98142,4.898978515625,6.01624,4.933800515625Q6.05106,4.968622515625,6.0784199999999995,5.009568515625Q6.10578,5.050514515625,6.12463,5.096011515625Q6.143470000000001,5.141508515625,6.15308,5.189808315625Q6.16269,5.238107815625,6.16269,5.2873535418117Q6.16269,5.336599215625,6.15308,5.384898715625Q6.143470000000001,5.433198515625,6.12463,5.478695515625Q6.10578,5.524192515625,6.0784199999999995,5.565138515625Q6.05106,5.606085515625,6.01624,5.640907515625Q4.625,7.032143515625,4.625,8.999663515625Q4.625,10.967183515624999,6.01624,12.358423515624999Q6.05106,12.393243515624999,6.0784199999999995,12.434193515625001Q6.10578,12.475143515625,6.12463,12.520633515625Q6.143470000000001,12.566133515625001,6.15308,12.614433515624999Q6.16269,12.662733515625,6.16269,12.711983515625Q6.16269,12.761223515625,6.15308,12.809523515625Q6.143470000000001,12.857823515625,6.12463,12.903323515625Q6.10578,12.948813515625,6.0784199999999995,12.989763515625Q6.05106,13.030713515625,6.01624,13.065533515624999Q5.98142,13.100353515624999,5.9404699999999995,13.127713515625Q5.89953,13.155073515625,5.85403,13.173913515625Q5.80853,13.192763515625,5.76023,13.202373515625Q5.71193,13.211973515625,5.66269,13.211973515625Q5.61344,13.211973515625,5.5651399999999995,13.202373515625Q5.51684,13.192763515625,5.47135,13.173913515625Q5.4258500000000005,13.155073515625,5.3849,13.127713515625Q5.34396,13.100353515624999,5.30913,13.065533515624999ZM6.16269,12.711983515625Q6.16269,12.761223515625,6.15308,12.809523515625Q6.143470000000001,12.857823515625,6.12463,12.903323515625Q6.10578,12.948813515625,6.0784199999999995,12.989763515625Q6.05106,13.030713515625,6.01624,13.065533515624999Q5.98142,13.100353515624999,5.9404699999999995,13.127713515625Q5.89953,13.155073515625,5.85403,13.173913515625Q5.80853,13.192763515625,5.76023,13.202373515625Q5.71193,13.211983515625,5.66269,13.211983515625Q5.61344,13.211983515625,5.5651399999999995,13.202373515625Q5.51684,13.192763515625,5.47135,13.173913515625Q5.4258500000000005,13.155073515625,5.3849,13.127713515625Q5.34396,13.100353515624999,5.30913,13.065533515624999Q5.27431,13.030713515625,5.24695,12.989763515625Q5.21959,12.948813515625,5.20075,12.903323515625Q5.1819,12.857823515625,5.1723,12.809523515625Q5.16269,12.761223515625,5.16269,12.711983515625Q5.16269,12.662733515625,5.1723,12.614433515624999Q5.1819,12.566133515625001,5.20075,12.520633515625Q5.21959,12.475143515625,5.24695,12.434193515625001Q5.27431,12.393243515624999,5.30913,12.358423515624999Q5.34396,12.323603515624999,5.3849,12.296243515625001Q5.4258500000000005,12.268883515625,5.47135,12.250043515625Q5.51684,12.231193515625,5.5651399999999995,12.221583515625Q5.61344,12.211983515625,5.66269,12.211983515625Q5.71193,12.211983515625,5.76023,12.221583515625Q5.80853,12.231193515625,5.85403,12.250043515625Q5.89953,12.268883515625,5.9404699999999995,12.296243515625001Q5.98142,12.323603515624999,6.01624,12.358423515624999Q6.05106,12.393243515624999,6.0784199999999995,12.434193515625001Q6.10578,12.475143515625,6.12463,12.520633515625Q6.143470000000001,12.566133515625001,6.15308,12.614433515624999Q6.16269,12.662733515625,6.16269,12.711983515625ZM6.16269,5.287353515625Q6.16269,5.336599215625,6.15308,5.384898615625Q6.143470000000001,5.433198515625,6.12463,5.478695515625Q6.10578,5.524192515625,6.0784199999999995,5.565138515625Q6.05106,5.606084515625,6.01624,5.640906515625Q5.98142,5.675728515625,5.9404699999999995,5.703088515625Q5.89953,5.730447515625,5.85403,5.749293515625Q5.80853,5.768138515625,5.76023,5.777746515625Q5.71193,5.787353515625,5.66269,5.787353515625Q5.61344,5.787353515625,5.5651399999999995,5.777746515625Q5.51684,5.768138515625,5.47135,5.749293515625Q5.4258500000000005,5.730447515625,5.3849,5.703088515625Q5.34396,5.675728515625,5.30913,5.640906515625Q5.27431,5.606084515625,5.24695,5.565138515625Q5.21959,5.524192515625,5.20075,5.478695515625Q5.1819,5.433198515625,5.1723,5.384898615625Q5.16269,5.336599215625,5.16269,5.287353515625Q5.16269,5.238107815625,5.1723,5.189808415625Q5.1819,5.141508515625,5.20075,5.096011515625Q5.21959,5.050514515625,5.24695,5.009568515625Q5.27431,4.968622515625,5.30913,4.933800515625Q5.34396,4.898978515625,5.3849,4.871618515625Q5.4258500000000005,4.844259515625,5.47135,4.825413515625Q5.51684,4.806568515625,5.5651399999999995,4.796960515625Q5.61344,4.787353515625,5.66269,4.787353515625Q5.71193,4.787353515625,5.76023,4.796960515625Q5.80853,4.806568515625,5.85403,4.825413515625Q5.89953,4.844259515625,5.9404699999999995,4.871618515625Q5.98142,4.898978515625,6.01624,4.933800515625Q6.05106,4.968622515625,6.0784199999999995,5.009568515625Q6.10578,5.050514515625,6.12463,5.096011515625Q6.143470000000001,5.141508515625,6.15308,5.189808415625Q6.16269,5.238107815625,6.16269,5.287353515625Z"   fill-opacity="1"/></g><g><path d="M12.690712203125,4.933800515625Q14.374848203125,6.617933515625,14.374848203125,8.999663515625Q14.374848203125,11.381393515625,12.690712203125,13.065533515624999Q12.655890203125,13.100353515624999,12.614944203125,13.127713515625Q12.573997203125,13.155073515625,12.528500203125,13.173913515625Q12.483003203125,13.192763515625,12.434704003125,13.202373515625Q12.386404503125,13.211973515625,12.337158787961,13.211973515625Q12.287913103125,13.211973515625,12.239613603125,13.202373515625Q12.191314203125,13.192763515625,12.145817203125,13.173913515625Q12.100320203125,13.155073515625,12.059373203125,13.127713515625Q12.018427203125,13.100353515624999,11.983605203125,13.065533515624999Q11.948783203125,13.030713515625,11.921423203125,12.989763515625Q11.894064203125,12.948813515625,11.875218203125,12.903323515625Q11.856373203124999,12.857823515625,11.846766203125,12.809523515625Q11.837158203125,12.761223515625,11.837158203125,12.711983515625Q11.837158203125,12.662733515625,11.846765203125,12.614433515624999Q11.856373203124999,12.566133515625001,11.875218203125,12.520633515625Q11.894064203125,12.475143515625,11.921423203125,12.434193515625001Q11.948783203125,12.393243515624999,11.983605203125,12.358423515624999Q13.374848203125,10.967183515624999,13.374848203125,8.999663515625Q13.374848203125,7.032153515625,11.983604203125,5.640906515625Q11.948782203125,5.606084515625,11.921423203125,5.565138515625Q11.894064203125,5.524191515625,11.875218203125,5.478694515625Q11.856373203124999,5.433197515625,11.846765203125,5.384898315625Q11.837158203125,5.336598815625,11.837158203125,5.28735315774Q11.837158203125,5.238107415625,11.846765203125,5.189808015625Q11.856373203124999,5.141508515625,11.875218203125,5.096011515625Q11.894064203125,5.050514515625,11.921423203125,5.009568515625Q11.948783203125,4.968621515625,11.983605203125,4.933799515625Q12.018427203125,4.898977515625,12.059373203125,4.871618515625Q12.100320203125,4.844259515625,12.145817203125,4.825413515625Q12.191314203125,4.806568515625,12.239613403125,4.796960515625Q12.287912903125,4.787353515625,12.33715856101,4.787353515625Q12.386404303125,4.787353515625,12.434703703125,4.796960515625Q12.483003203125,4.806568515625,12.528500203125,4.825413515625Q12.573997203125,4.844259515625,12.614943203125,4.871618515625Q12.655890203125,4.898978515625,12.690712203125,4.933800515625ZM12.837158203125,5.287353515625Q12.837158203125,5.336599215625,12.827551203125,5.384898615625Q12.817943203125001,5.433198515625,12.799098203125,5.478695515625Q12.780252203125,5.524192515625,12.752893203125,5.565138515625Q12.725533203125,5.606084515625,12.690711203125,5.640906515625Q12.655889203125,5.675728515625,12.614943203125,5.703088515625Q12.573997203125,5.730447515625,12.528500203125,5.749293515625Q12.483003203125,5.768138515625,12.434703303125,5.777746515625Q12.386403903125,5.787353515625,12.337158203125,5.787353515625Q12.287912503125,5.787353515625,12.239613103125,5.777746515625Q12.191313203125,5.768138515625,12.145816203125,5.749293515625Q12.100319203125,5.730447515625,12.059373203125,5.703088515625Q12.018427203125,5.675728515625,11.983605203125,5.640906515625Q11.948783203125,5.606084515625,11.921423203125,5.565138515625Q11.894064203125,5.524192515625,11.875218203125,5.478695515625Q11.856373203124999,5.433198515625,11.846765203125,5.384898615625Q11.837158203125,5.336599215625,11.837158203125,5.287353515625Q11.837158203125,5.238107815625,11.846765203125,5.189808415625Q11.856373203124999,5.141508515625,11.875218203125,5.096011515625Q11.894064203125,5.050514515625,11.921423203125,5.009568515625Q11.948783203125,4.968622515625,11.983605203125,4.933800515625Q12.018427203125,4.898978515625,12.059373203125,4.871618515625Q12.100319203125,4.844259515625,12.145816203125,4.825413515625Q12.191313203125,4.806568515625,12.239613103125,4.796960515625Q12.287912503125,4.787353515625,12.337158203125,4.787353515625Q12.386403903125,4.787353515625,12.434703303125,4.796960515625Q12.483003203125,4.806568515625,12.528500203125,4.825413515625Q12.573997203125,4.844259515625,12.614943203125,4.871618515625Q12.655889203125,4.898978515625,12.690711203125,4.933800515625Q12.725533203125,4.968622515625,12.752893203125,5.009568515625Q12.780252203125,5.050514515625,12.799098203125,5.096011515625Q12.817943203125001,5.141508515625,12.827551203125,5.189808415625Q12.837158203125,5.238107815625,12.837158203125,5.287353515625ZM12.837158203125,12.711983515625Q12.837158203125,12.761223515625,12.827551203125,12.809523515625Q12.817943203125001,12.857823515625,12.799098203125,12.903323515625Q12.780252203125,12.948813515625,12.752893203125,12.989763515625Q12.725533203125,13.030713515625,12.690711203125,13.065533515624999Q12.655889203125,13.100353515624999,12.614943203125,13.127713515625Q12.573997203125,13.155073515625,12.528500203125,13.173913515625Q12.483003203125,13.192763515625,12.434703303125,13.202373515625Q12.386403903125,13.211983515625,12.337158203125,13.211983515625Q12.287912503125,13.211983515625,12.239613103125,13.202373515625Q12.191313203125,13.192763515625,12.145816203125,13.173913515625Q12.100319203125,13.155073515625,12.059373203125,13.127713515625Q12.018427203125,13.100353515624999,11.983605203125,13.065533515624999Q11.948783203125,13.030713515625,11.921423203125,12.989763515625Q11.894064203125,12.948813515625,11.875218203125,12.903323515625Q11.856373203124999,12.857823515625,11.846765203125,12.809523515625Q11.837158203125,12.761223515625,11.837158203125,12.711983515625Q11.837158203125,12.662733515625,11.846765203125,12.614433515624999Q11.856373203124999,12.566133515625001,11.875218203125,12.520633515625Q11.894064203125,12.475143515625,11.921423203125,12.434193515625001Q11.948783203125,12.393243515624999,11.983605203125,12.358423515624999Q12.018427203125,12.323603515624999,12.059373203125,12.296243515625001Q12.100319203125,12.268883515625,12.145816203125,12.250043515625Q12.191313203125,12.231193515625,12.239613103125,12.221583515625Q12.287912503125,12.211983515625,12.337158203125,12.211983515625Q12.386403903125,12.211983515625,12.434703303125,12.221583515625Q12.483003203125,12.231193515625,12.528500203125,12.250043515625Q12.573997203125,12.268883515625,12.614943203125,12.296243515625001Q12.655889203125,12.323603515624999,12.690711203125,12.358423515624999Q12.725533203125,12.393243515624999,12.752893203125,12.434193515625001Q12.780252203125,12.475143515625,12.799098203125,12.520633515625Q12.817943203125001,12.566133515625001,12.827551203125,12.614433515624999Q12.837158203125,12.662733515625,12.837158203125,12.711983515625Z"   fill-opacity="1"/></g><g><path d="M9.5,12.75L9.5,16.5Q9.5,16.54925,9.490393,16.59755Q9.480785000000001,16.64584,9.46194,16.69134Q9.443094,16.73684,9.415735,16.77778Q9.388375,16.818730000000002,9.353553,16.85355Q9.318731,16.888379999999998,9.277785,16.91573Q9.236839,16.943089999999998,9.191342,16.96194Q9.145845,16.98079,9.0975451,16.990389999999998Q9.0492457,17,9,17Q8.9507543,17,8.9024549,16.990389999999998Q8.854155,16.98079,8.808658,16.96194Q8.763161,16.943089999999998,8.722215,16.91573Q8.681269,16.888379999999998,8.646447,16.85355Q8.611625,16.818730000000002,8.584265,16.77778Q8.556906,16.73684,8.53806,16.69134Q8.519214999999999,16.64584,8.509607,16.59755Q8.5,16.54925,8.5,16.5L8.5,12.75Q8.5,12.7007543,8.509607,12.6524549Q8.519214999999999,12.604155,8.53806,12.558658Q8.556906,12.513161,8.584265,12.472215Q8.611625,12.431269,8.646447,12.396447Q8.681269,12.361625,8.722215,12.334265Q8.763161,12.306906,8.808658,12.28806Q8.854155,12.269214999999999,8.9024549,12.259607Q8.9507543,12.25,9,12.25Q9.0492457,12.25,9.0975451,12.259607Q9.145845,12.269214999999999,9.191342,12.28806Q9.236839,12.306906,9.277785,12.334265Q9.318731,12.361625,9.353553,12.396447Q9.388375,12.431269,9.415735,12.472215Q9.443094,12.513161,9.46194,12.558658Q9.480785000000001,12.604155,9.490393,12.6524549Q9.5,12.7007543,9.5,12.75ZM9.5,12.75Q9.5,12.7992457,9.490393,12.8475451Q9.480785000000001,12.895845,9.46194,12.941342Q9.443094,12.986839,9.415735,13.027785Q9.388375,13.068731,9.353553,13.103553Q9.318731,13.138375,9.277785,13.165735Q9.236839,13.193094,9.191342,13.21194Q9.145845,13.230785000000001,9.0975451,13.240393Q9.0492457,13.25,9,13.25Q8.9507543,13.25,8.9024549,13.240393Q8.854155,13.230785000000001,8.808658,13.21194Q8.763161,13.193094,8.722215,13.165735Q8.681269,13.138375,8.646447,13.103553Q8.611625,13.068731,8.584265,13.027785Q8.556906,12.986839,8.53806,12.941342Q8.519214999999999,12.895845,8.509607,12.8475451Q8.5,12.7992457,8.5,12.75Q8.5,12.7007543,8.509607,12.6524549Q8.519214999999999,12.604155,8.53806,12.558658Q8.556906,12.513161,8.584265,12.472215Q8.611625,12.431269,8.646447,12.396447Q8.681269,12.361625,8.722215,12.334265Q8.763161,12.306906,8.808658,12.28806Q8.854155,12.269214999999999,8.9024549,12.259607Q8.9507543,12.25,9,12.25Q9.0492457,12.25,9.0975451,12.259607Q9.145845,12.269214999999999,9.191342,12.28806Q9.236839,12.306906,9.277785,12.334265Q9.318731,12.361625,9.353553,12.396447Q9.388375,12.431269,9.415735,12.472215Q9.443094,12.513161,9.46194,12.558658Q9.480785000000001,12.604155,9.490393,12.6524549Q9.5,12.7007543,9.5,12.75ZM9.5,16.5Q9.5,16.54925,9.490393,16.59755Q9.480785000000001,16.64584,9.46194,16.69134Q9.443094,16.73684,9.415735,16.77778Q9.388375,16.818730000000002,9.353553,16.85355Q9.318731,16.888379999999998,9.277785,16.91573Q9.236839,16.943089999999998,9.191342,16.96194Q9.145845,16.98079,9.0975451,16.990389999999998Q9.0492457,17,9,17Q8.9507543,17,8.9024549,16.990389999999998Q8.854155,16.98079,8.808658,16.96194Q8.763161,16.943089999999998,8.722215,16.91573Q8.681269,16.888379999999998,8.646447,16.85355Q8.611625,16.818730000000002,8.584265,16.77778Q8.556906,16.73684,8.53806,16.69134Q8.519214999999999,16.64584,8.509607,16.59755Q8.5,16.54925,8.5,16.5Q8.5,16.45075,8.509607,16.40245Q8.519214999999999,16.35416,8.53806,16.30866Q8.556906,16.26316,8.584265,16.22221Q8.611625,16.18127,8.646447,16.14645Q8.681269,16.11162,8.722215,16.08426Q8.763161,16.05691,8.808658,16.03806Q8.854155,16.01921,8.9024549,16.00961Q8.9507543,16,9,16Q9.0492457,16,9.0975451,16.00961Q9.145845,16.01921,9.191342,16.03806Q9.236839,16.05691,9.277785,16.08427Q9.318731,16.11162,9.353553,16.14645Q9.388375,16.18127,9.415735,16.22221Q9.443094,16.26316,9.46194,16.30866Q9.480785000000001,16.35416,9.490393,16.40245Q9.5,16.45075,9.5,16.5Z"   fill-opacity="1"/></g><g><path d="M8.5,5.25L8.5,1.5Q8.5,1.4507543,8.509607,1.4024549Q8.519214999999999,1.354155,8.53806,1.3086579999999999Q8.556906,1.263161,8.584265,1.222215Q8.611625,1.181269,8.646447,1.146447Q8.681269,1.111625,8.722215,1.084265Q8.763161,1.0569060000000001,8.808658,1.03806Q8.854155,1.019215,8.9024549,1.009607Q8.9507543,1,9,1Q9.0492457,1,9.0975451,1.009607Q9.145845,1.019215,9.191342,1.03806Q9.236839,1.0569060000000001,9.277785,1.084265Q9.318731,1.111625,9.353553,1.146447Q9.388375,1.181269,9.415735,1.222215Q9.443094,1.263161,9.46194,1.3086579999999999Q9.480785000000001,1.354155,9.490393,1.4024549Q9.5,1.4507543,9.5,1.5L9.5,5.25Q9.5,5.29925,9.490393,5.34755Q9.480785000000001,5.39584,9.46194,5.44134Q9.443094,5.48684,9.415735,5.52778Q9.388375,5.56873,9.353553,5.60355Q9.318731,5.63838,9.277785,5.66573Q9.236839,5.69309,9.191342,5.71194Q9.145845,5.73079,9.0975451,5.74039Q9.0492457,5.75,9,5.75Q8.9507543,5.75,8.9024549,5.74039Q8.854155,5.73079,8.808658,5.71194Q8.763161,5.69309,8.722215,5.66573Q8.681269,5.63838,8.646447,5.60355Q8.611625,5.56873,8.584265,5.52778Q8.556906,5.48684,8.53806,5.44134Q8.519214999999999,5.39584,8.509607,5.34755Q8.5,5.29925,8.5,5.25ZM9.5,5.25Q9.5,5.29925,9.490393,5.34755Q9.480785000000001,5.39584,9.46194,5.44134Q9.443094,5.48684,9.415735,5.52778Q9.388375,5.56873,9.353553,5.60355Q9.318731,5.63838,9.277785,5.66573Q9.236839,5.69309,9.191342,5.71194Q9.145845,5.73079,9.0975451,5.74039Q9.0492457,5.75,9,5.75Q8.9507543,5.75,8.9024549,5.74039Q8.854155,5.73079,8.808658,5.71194Q8.763161,5.69309,8.722215,5.66573Q8.681269,5.63838,8.646447,5.60355Q8.611625,5.56873,8.584265,5.52778Q8.556906,5.48684,8.53806,5.44134Q8.519214999999999,5.39584,8.509607,5.34755Q8.5,5.29925,8.5,5.25Q8.5,5.20075,8.509607,5.15245Q8.519214999999999,5.10416,8.53806,5.05866Q8.556906,5.01316,8.584265,4.9722100000000005Q8.611625,4.93127,8.646447,4.89645Q8.681269,4.86162,8.722215,4.8342600000000004Q8.763161,4.80691,8.808658,4.78806Q8.854155,4.76921,8.9024549,4.75961Q8.9507543,4.75,9,4.75Q9.0492457,4.75,9.0975451,4.75961Q9.145845,4.76921,9.191342,4.78806Q9.236839,4.80691,9.277785,4.83427Q9.318731,4.86162,9.353553,4.89645Q9.388375,4.93127,9.415735,4.9722100000000005Q9.443094,5.01316,9.46194,5.05866Q9.480785000000001,5.10416,9.490393,5.15245Q9.5,5.20075,9.5,5.25ZM9.5,1.5Q9.5,1.5492457,9.490393,1.5975451Q9.480785000000001,1.645845,9.46194,1.6913420000000001Q9.443094,1.736839,9.415735,1.777785Q9.388375,1.818731,9.353553,1.853553Q9.318731,1.888375,9.277785,1.915735Q9.236839,1.9430939999999999,9.191342,1.96194Q9.145845,1.980785,9.0975451,1.990393Q9.0492457,2,9,2Q8.9507543,2,8.9024549,1.990393Q8.854155,1.980785,8.808658,1.96194Q8.763161,1.9430939999999999,8.722215,1.915735Q8.681269,1.888375,8.646447,1.853553Q8.611625,1.818731,8.584265,1.777785Q8.556906,1.736839,8.53806,1.6913420000000001Q8.519214999999999,1.645845,8.509607,1.5975451Q8.5,1.5492457,8.5,1.5Q8.5,1.4507543,8.509607,1.4024549Q8.519214999999999,1.354155,8.53806,1.3086579999999999Q8.556906,1.263161,8.584265,1.222215Q8.611625,1.181269,8.646447,1.146447Q8.681269,1.111625,8.722215,1.084265Q8.763161,1.0569060000000001,8.808658,1.03806Q8.854155,1.019215,8.9024549,1.009607Q8.9507543,1,9,1Q9.0492457,1,9.0975451,1.009607Q9.145845,1.019215,9.191342,1.03806Q9.236839,1.0569060000000001,9.277785,1.084265Q9.318731,1.111625,9.353553,1.146447Q9.388375,1.181269,9.415735,1.222215Q9.443094,1.263161,9.46194,1.3086579999999999Q9.480785000000001,1.354155,9.490393,1.4024549Q9.5,1.4507543,9.5,1.5Z"   fill-opacity="1"/></g><g><ellipse cx="9" cy="9" rx="1.125" ry="1.125"   fill-opacity="1"/></g></g></svg>