<?xml version="1.0" standalone="no"?><!DOCTYPE svg PUBLIC "-//W3C//DTD SVG 1.1//EN" "http://www.w3.org/Graphics/SVG/1.1/DTD/svg11.dtd"><svg t="1690537249982" class="icon" viewBox="0 0 1024 1024" version="1.1" xmlns="http://www.w3.org/2000/svg" p-id="2304" xmlns:xlink="http://www.w3.org/1999/xlink" width="32" height="32"><path d="M352.789333 777.301333c-72.96 14.933333-118.122667 38.741333-118.122666 74.666667 0 55.765333 123.264 89.6 277.333333 89.6s277.333333-33.834667 277.333333-89.6c0-36.864-48.234667-61.717333-126.4-76.672a20.266667 20.266667 0 0 0-22.229333 16.128 19.733333 19.733333 0 0 0 15.082667 22.613333c58.56 10.965333 93.461333 28.906667 93.461333 37.866667 0 1.984-3.093333 4.992-11.285333 10.944a195.264 195.264 0 0 1-49.28 19.882667c-46.229333 12.928-108.885333 19.904-175.658667 19.904-66.752 0-130.410667-6.954667-175.658667-19.904a197.76 197.76 0 0 1-49.28-19.882667c-9.216-6.016-12.309333-8.96-12.309333-10.944 0-7.957333 31.872-24.917333 85.290667-35.84a19.712 19.712 0 0 0 13.141333-8.661333 18.581333 18.581333 0 0 0 2.282667-15.253334 17.728 17.728 0 0 0-8.234667-12.864 18.858667 18.858667 0 0 0-15.466667-2.090666v0.106666zM789.333333 362.645333C789.333333 209.514667 665.216 85.333333 512 85.333333c-153.173333 0-277.333333 124.181333-277.333333 277.312 0 50.602667 13.76 97.834667 37.397333 138.666667h-0.298667L512 848 752.277333 501.333333h-0.32A275.072 275.072 0 0 0 789.333333 362.645333M512 501.333333a138.666667 138.666667 0 1 1 0-277.333333 138.666667 138.666667 0 0 1 0 277.333333" fill="#ffffff" p-id="2305"></path></svg>