<?xml version="1.0" standalone="no"?><!DOCTYPE svg PUBLIC "-//W3C//DTD SVG 1.1//EN" "http://www.w3.org/Graphics/SVG/1.1/DTD/svg11.dtd"><svg t="1690422111785" class="icon" viewBox="0 0 1024 1024" version="1.1" xmlns="http://www.w3.org/2000/svg" p-id="2962" id="mx_n_1690422111786" width="32" height="32" xmlns:xlink="http://www.w3.org/1999/xlink"><path d="M833.910858 901.088582c0 67.893926-144.177045 122.911418-321.910858 122.911418S190.089142 968.982508 190.089142 901.088582c0-63.991977 127.788856-116.473201 291.280552-122.521224V550.108198a275.90687 275.90687 0 1 1 61.260612 0v228.45916c163.491696 6.048022 291.280552 58.529247 291.280552 122.521224zM358.653373 409.052713a30.727855 30.727855 0 1 0-30.630306-30.630306 30.552267 30.552267 0 0 0 30.630306 30.630306zM576.577269 99.237899c-55.602785-47.798885-147.6888-33.166573-209.729801 35.117548-53.261615 58.724344-67.698829 138.129023-39.799888 194.512197a219.718793 219.718793 0 0 1 61.260612-162.516209c54.042005-58.334149 127.788856-82.136043 188.269077-67.113536zM512 931.718887c-76.283118 0-137.933925-23.996991-137.933925-53.651809 0-25.752869 45.84791-47.018495 107.303619-52.481225v-31.605793c-137.933925 5.072535-245.237545 44.28713-245.237544 91.69582 0 50.920445 123.496711 92.281113 275.86785 92.281112s275.86785-41.360668 275.86785-92.281112c0-47.40869-107.303619-86.623285-245.237544-91.69582v31.605793c61.455709 5.46273 107.303619 26.728356 107.303619 52.481225 0 29.654818-61.650807 53.65181-137.933925 53.651809z" fill="#ffffff" p-id="2963"></path></svg>